<?xml version="1.0" standalone="no"?>
<!DOCTYPE svg PUBLIC "-//W3C//DTD SVG 1.1//EN" "http://www.w3.org/Graphics/SVG/1.1/DTD/svg11.dtd">
<svg version="1.1" width="1200" height="422" onload="init(evt)" viewBox="0 0 1200 422" xmlns="http://www.w3.org/2000/svg" xmlns:xlink="http://www.w3.org/1999/xlink">
<!-- Flame graph stack visualization. See https://github.com/brendangregg/FlameGraph for latest version, and http://www.brendangregg.com/flamegraphs.html for examples. -->
<!-- NOTES:  -->
<defs>
	<linearGradient id="background" y1="0" y2="1" x1="0" x2="0" >
		<stop stop-color="#eeeeee" offset="5%" />
		<stop stop-color="#eeeeb0" offset="95%" />
	</linearGradient>
</defs>
<style type="text/css">
	text { font-family:Verdana; font-size:12px; fill:rgb(0,0,0); }
	#search, #ignorecase { opacity:0.1; cursor:pointer; }
	#search:hover, #search.show, #ignorecase:hover, #ignorecase.show { opacity:1; }
	#subtitle { text-anchor:middle; font-color:rgb(160,160,160); }
	#title { text-anchor:middle; font-size:17px}
	#unzoom { cursor:pointer; }
	#frames > *:hover { stroke:black; stroke-width:0.5; cursor:pointer; }
	.hide { display:none; }
	.parent { opacity:0.5; }
</style>
<script type="text/ecmascript">
<![CDATA[
	"use strict";
	var details, searchbtn, unzoombtn, matchedtxt, svg, searching, currentSearchTerm, ignorecase, ignorecaseBtn;
	function init(evt) {
		details = document.getElementById("details").firstChild;
		searchbtn = document.getElementById("search");
		ignorecaseBtn = document.getElementById("ignorecase");
		unzoombtn = document.getElementById("unzoom");
		matchedtxt = document.getElementById("matched");
		svg = document.getElementsByTagName("svg")[0];
		searching = 0;
		currentSearchTerm = null;

		// use GET parameters to restore a flamegraphs state.
		var params = get_params();
		if (params.x && params.y)
			zoom(find_group(document.querySelector('[x="' + params.x + '"][y="' + params.y + '"]')));
                if (params.s) search(params.s);
	}

	// event listeners
	window.addEventListener("click", function(e) {
		var target = find_group(e.target);
		if (target) {
			if (target.nodeName == "a") {
				if (e.ctrlKey === false) return;
				e.preventDefault();
			}
			if (target.classList.contains("parent")) unzoom(true);
			zoom(target);
			if (!document.querySelector('.parent')) {
				// we have basically done a clearzoom so clear the url
				var params = get_params();
				if (params.x) delete params.x;
				if (params.y) delete params.y;
				history.replaceState(null, null, parse_params(params));
				unzoombtn.classList.add("hide");
				return;
			}

			// set parameters for zoom state
			var el = target.querySelector("rect");
			if (el && el.attributes && el.attributes.y && el.attributes._orig_x) {
				var params = get_params()
				params.x = el.attributes._orig_x.value;
				params.y = el.attributes.y.value;
				history.replaceState(null, null, parse_params(params));
			}
		}
		else if (e.target.id == "unzoom") clearzoom();
		else if (e.target.id == "search") search_prompt();
		else if (e.target.id == "ignorecase") toggle_ignorecase();
	}, false)

	// mouse-over for info
	// show
	window.addEventListener("mouseover", function(e) {
		var target = find_group(e.target);
		if (target) details.nodeValue = "Function: " + g_to_text(target);
	}, false)

	// clear
	window.addEventListener("mouseout", function(e) {
		var target = find_group(e.target);
		if (target) details.nodeValue = ' ';
	}, false)

	// ctrl-F for search
	// ctrl-I to toggle case-sensitive search
	window.addEventListener("keydown",function (e) {
		if (e.keyCode === 114 || (e.ctrlKey && e.keyCode === 70)) {
			e.preventDefault();
			search_prompt();
		}
		else if (e.ctrlKey && e.keyCode === 73) {
			e.preventDefault();
			toggle_ignorecase();
		}
	}, false)

	// functions
	function get_params() {
		var params = {};
		var paramsarr = window.location.search.substr(1).split('&');
		for (var i = 0; i < paramsarr.length; ++i) {
			var tmp = paramsarr[i].split("=");
			if (!tmp[0] || !tmp[1]) continue;
			params[tmp[0]]  = decodeURIComponent(tmp[1]);
		}
		return params;
	}
	function parse_params(params) {
		var uri = "?";
		for (var key in params) {
			uri += key + '=' + encodeURIComponent(params[key]) + '&';
		}
		if (uri.slice(-1) == "&")
			uri = uri.substring(0, uri.length - 1);
		if (uri == '?')
			uri = window.location.href.split('?')[0];
		return uri;
	}
	function find_child(node, selector) {
		var children = node.querySelectorAll(selector);
		if (children.length) return children[0];
	}
	function find_group(node) {
		var parent = node.parentElement;
		if (!parent) return;
		if (parent.id == "frames") return node;
		return find_group(parent);
	}
	function orig_save(e, attr, val) {
		if (e.attributes["_orig_" + attr] != undefined) return;
		if (e.attributes[attr] == undefined) return;
		if (val == undefined) val = e.attributes[attr].value;
		e.setAttribute("_orig_" + attr, val);
	}
	function orig_load(e, attr) {
		if (e.attributes["_orig_"+attr] == undefined) return;
		e.attributes[attr].value = e.attributes["_orig_" + attr].value;
		e.removeAttribute("_orig_"+attr);
	}
	function g_to_text(e) {
		var text = find_child(e, "title").firstChild.nodeValue;
		return (text)
	}
	function g_to_func(e) {
		var func = g_to_text(e);
		// if there's any manipulation we want to do to the function
		// name before it's searched, do it here before returning.
		return (func);
	}
	function update_text(e) {
		var r = find_child(e, "rect");
		var t = find_child(e, "text");
		var w = parseFloat(r.attributes.width.value) -3;
		var txt = find_child(e, "title").textContent.replace(/\([^(]*\)$/,"");
		t.attributes.x.value = parseFloat(r.attributes.x.value) + 3;

		// Smaller than this size won't fit anything
		if (w < 2 * 12 * 0.59) {
			t.textContent = "";
			return;
		}

		t.textContent = txt;
		var sl = t.getSubStringLength(0, txt.length);
		// check if only whitespace or if we can fit the entire string into width w
		if (/^ *$/.test(txt) || sl < w)
			return;

		// this isn't perfect, but gives a good starting point
		// and avoids calling getSubStringLength too often
		var start = Math.floor((w/sl) * txt.length);
		for (var x = start; x > 0; x = x-2) {
			if (t.getSubStringLength(0, x + 2) <= w) {
				t.textContent = txt.substring(0, x) + "..";
				return;
			}
		}
		t.textContent = "";
	}

	// zoom
	function zoom_reset(e) {
		if (e.attributes != undefined) {
			orig_load(e, "x");
			orig_load(e, "width");
		}
		if (e.childNodes == undefined) return;
		for (var i = 0, c = e.childNodes; i < c.length; i++) {
			zoom_reset(c[i]);
		}
	}
	function zoom_child(e, x, ratio) {
		if (e.attributes != undefined) {
			if (e.attributes.x != undefined) {
				orig_save(e, "x");
				e.attributes.x.value = (parseFloat(e.attributes.x.value) - x - 10) * ratio + 10;
				if (e.tagName == "text")
					e.attributes.x.value = find_child(e.parentNode, "rect[x]").attributes.x.value + 3;
			}
			if (e.attributes.width != undefined) {
				orig_save(e, "width");
				e.attributes.width.value = parseFloat(e.attributes.width.value) * ratio;
			}
		}

		if (e.childNodes == undefined) return;
		for (var i = 0, c = e.childNodes; i < c.length; i++) {
			zoom_child(c[i], x - 10, ratio);
		}
	}
	function zoom_parent(e) {
		if (e.attributes) {
			if (e.attributes.x != undefined) {
				orig_save(e, "x");
				e.attributes.x.value = 10;
			}
			if (e.attributes.width != undefined) {
				orig_save(e, "width");
				e.attributes.width.value = parseInt(svg.width.baseVal.value) - (10 * 2);
			}
		}
		if (e.childNodes == undefined) return;
		for (var i = 0, c = e.childNodes; i < c.length; i++) {
			zoom_parent(c[i]);
		}
	}
	function zoom(node) {
		var attr = find_child(node, "rect").attributes;
		var width = parseFloat(attr.width.value);
		var xmin = parseFloat(attr.x.value);
		var xmax = parseFloat(xmin + width);
		var ymin = parseFloat(attr.y.value);
		var ratio = (svg.width.baseVal.value - 2 * 10) / width;

		// XXX: Workaround for JavaScript float issues (fix me)
		var fudge = 0.0001;

		unzoombtn.classList.remove("hide");

		var el = document.getElementById("frames").children;
		for (var i = 0; i < el.length; i++) {
			var e = el[i];
			var a = find_child(e, "rect").attributes;
			var ex = parseFloat(a.x.value);
			var ew = parseFloat(a.width.value);
			var upstack;
			// Is it an ancestor
			if (0 == 0) {
				upstack = parseFloat(a.y.value) > ymin;
			} else {
				upstack = parseFloat(a.y.value) < ymin;
			}
			if (upstack) {
				// Direct ancestor
				if (ex <= xmin && (ex+ew+fudge) >= xmax) {
					e.classList.add("parent");
					zoom_parent(e);
					update_text(e);
				}
				// not in current path
				else
					e.classList.add("hide");
			}
			// Children maybe
			else {
				// no common path
				if (ex < xmin || ex + fudge >= xmax) {
					e.classList.add("hide");
				}
				else {
					zoom_child(e, xmin, ratio);
					update_text(e);
				}
			}
		}
		search();
	}
	function unzoom(dont_update_text) {
		unzoombtn.classList.add("hide");
		var el = document.getElementById("frames").children;
		for(var i = 0; i < el.length; i++) {
			el[i].classList.remove("parent");
			el[i].classList.remove("hide");
			zoom_reset(el[i]);
			if(!dont_update_text) update_text(el[i]);
		}
		search();
	}
	function clearzoom() {
		unzoom();

		// remove zoom state
		var params = get_params();
		if (params.x) delete params.x;
		if (params.y) delete params.y;
		history.replaceState(null, null, parse_params(params));
	}

	// search
	function toggle_ignorecase() {
		ignorecase = !ignorecase;
		if (ignorecase) {
			ignorecaseBtn.classList.add("show");
		} else {
			ignorecaseBtn.classList.remove("show");
		}
		reset_search();
		search();
	}
	function reset_search() {
		var el = document.querySelectorAll("#frames rect");
		for (var i = 0; i < el.length; i++) {
			orig_load(el[i], "fill")
		}
		var params = get_params();
		delete params.s;
		history.replaceState(null, null, parse_params(params));
	}
	function search_prompt() {
		if (!searching) {
			var term = prompt("Enter a search term (regexp " +
			    "allowed, eg: ^ext4_)"
			    + (ignorecase ? ", ignoring case" : "")
			    + "\nPress Ctrl-i to toggle case sensitivity", "");
			if (term != null) search(term);
		} else {
			reset_search();
			searching = 0;
			currentSearchTerm = null;
			searchbtn.classList.remove("show");
			searchbtn.firstChild.nodeValue = "Search"
			matchedtxt.classList.add("hide");
			matchedtxt.firstChild.nodeValue = ""
		}
	}
	function search(term) {
		if (term) currentSearchTerm = term;
		if (currentSearchTerm === null) return;

		var re = new RegExp(currentSearchTerm, ignorecase ? 'i' : '');
		var el = document.getElementById("frames").children;
		var matches = new Object();
		var maxwidth = 0;
		for (var i = 0; i < el.length; i++) {
			var e = el[i];
			var func = g_to_func(e);
			var rect = find_child(e, "rect");
			if (func == null || rect == null)
				continue;

			// Save max width. Only works as we have a root frame
			var w = parseFloat(rect.attributes.width.value);
			if (w > maxwidth)
				maxwidth = w;

			if (func.match(re)) {
				// highlight
				var x = parseFloat(rect.attributes.x.value);
				orig_save(rect, "fill");
				rect.attributes.fill.value = "rgb(230,0,230)";

				// remember matches
				if (matches[x] == undefined) {
					matches[x] = w;
				} else {
					if (w > matches[x]) {
						// overwrite with parent
						matches[x] = w;
					}
				}
				searching = 1;
			}
		}
		if (!searching)
			return;
		var params = get_params();
		params.s = currentSearchTerm;
		history.replaceState(null, null, parse_params(params));

		searchbtn.classList.add("show");
		searchbtn.firstChild.nodeValue = "Reset Search";

		// calculate percent matched, excluding vertical overlap
		var count = 0;
		var lastx = -1;
		var lastw = 0;
		var keys = Array();
		for (k in matches) {
			if (matches.hasOwnProperty(k))
				keys.push(k);
		}
		// sort the matched frames by their x location
		// ascending, then width descending
		keys.sort(function(a, b){
			return a - b;
		});
		// Step through frames saving only the biggest bottom-up frames
		// thanks to the sort order. This relies on the tree property
		// where children are always smaller than their parents.
		var fudge = 0.0001;	// JavaScript floating point
		for (var k in keys) {
			var x = parseFloat(keys[k]);
			var w = matches[keys[k]];
			if (x >= lastx + lastw - fudge) {
				count += w;
				lastx = x;
				lastw = w;
			}
		}
		// display matched percent
		matchedtxt.classList.remove("hide");
		var pct = 100 * count / maxwidth;
		if (pct != 100) pct = pct.toFixed(1)
		matchedtxt.firstChild.nodeValue = "Matched: " + pct + "%";
	}
]]>
</script>
<rect x="0.0" y="0" width="1200.0" height="422.0" fill="url(#background)"  />
<text id="title" x="600.00" y="24" >Flame Graph</text>
<text id="details" x="10.00" y="405" > </text>
<text id="unzoom" x="10.00" y="24" class="hide">Reset Zoom</text>
<text id="search" x="1090.00" y="24" >Search</text>
<text id="ignorecase" x="1174.00" y="24" >ic</text>
<text id="matched" x="1090.00" y="405" > </text>
<g id="frames">
<g >
<title>CSHA512::Finalize (10,724,330 samples, 1.83%)</title><rect x="932.8" y="165" width="21.5" height="15.0" fill="rgb(244,179,43)" rx="2" ry="2" />
<text  x="935.76" y="175.5" >C..</text>
</g>
<g >
<title>entry_SYSCALL_64_after_hwframe (12,958,974 samples, 2.21%)</title><rect x="1163.5" y="165" width="26.0" height="15.0" fill="rgb(218,63,15)" rx="2" ry="2" />
<text  x="1166.47" y="175.5" >e..</text>
</g>
<g >
<title>[libstdc++.so.6.0.30] (887,684 samples, 0.15%)</title><rect x="10.0" y="309" width="1.8" height="15.0" fill="rgb(235,140,33)" rx="2" ry="2" />
<text  x="13.00" y="319.5" ></text>
</g>
<g >
<title>__sanitizer_cov_trace_const_cmp8 (5,581,358 samples, 0.95%)</title><rect x="1152.3" y="181" width="11.2" height="15.0" fill="rgb(206,8,2)" rx="2" ry="2" />
<text  x="1155.26" y="191.5" ></text>
</g>
<g >
<title>RandAddDynamicEnv (12,958,974 samples, 2.21%)</title><rect x="1163.5" y="197" width="26.0" height="15.0" fill="rgb(240,161,38)" rx="2" ry="2" />
<text  x="1166.47" y="207.5" >R..</text>
</g>
<g >
<title>load_elf_binary (242,206 samples, 0.04%)</title><rect x="1189.5" y="261" width="0.5" height="15.0" fill="rgb(223,83,20)" rx="2" ry="2" />
<text  x="1192.50" y="271.5" ></text>
</g>
<g >
<title>handle_mm_fault (242,206 samples, 0.04%)</title><rect x="1189.5" y="165" width="0.5" height="15.0" fill="rgb(234,135,32)" rx="2" ry="2" />
<text  x="1192.50" y="175.5" ></text>
</g>
<g >
<title>exc_page_fault (5,346,337 samples, 0.91%)</title><rect x="22.5" y="213" width="10.8" height="15.0" fill="rgb(212,35,8)" rx="2" ry="2" />
<text  x="25.52" y="223.5" ></text>
</g>
<g >
<title>Unserialize&lt;DataStream, unsigned char, std::allocator&lt;unsigned char&gt; &gt; (5,343,897 samples, 0.91%)</title><rect x="44.0" y="165" width="10.7" height="15.0" fill="rgb(207,10,2)" rx="2" ry="2" />
<text  x="47.00" y="175.5" ></text>
</g>
<g >
<title>read (12,958,974 samples, 2.21%)</title><rect x="1163.5" y="181" width="26.0" height="15.0" fill="rgb(252,216,51)" rx="2" ry="2" />
<text  x="1166.47" y="191.5" >r..</text>
</g>
<g >
<title>asm_exc_page_fault (242,206 samples, 0.04%)</title><rect x="1189.5" y="213" width="0.5" height="15.0" fill="rgb(225,93,22)" rx="2" ry="2" />
<text  x="1192.50" y="223.5" ></text>
</g>
<g >
<title>fuzzer::RssThread (887,684 samples, 0.15%)</title><rect x="10.0" y="293" width="1.8" height="15.0" fill="rgb(242,174,41)" rx="2" ry="2" />
<text  x="13.00" y="303.5" ></text>
</g>
<g >
<title>handle_mm_fault (5,346,337 samples, 0.91%)</title><rect x="22.5" y="181" width="10.8" height="15.0" fill="rgb(234,135,32)" rx="2" ry="2" />
<text  x="25.52" y="191.5" ></text>
</g>
<g >
<title>CSHA512::Finalize (425,994,793 samples, 72.52%)</title><rect x="126.5" y="197" width="855.7" height="15.0" fill="rgb(244,179,43)" rx="2" ry="2" />
<text  x="129.48" y="207.5" >CSHA512::Finalize</text>
</g>
<g >
<title>_Z9WriteBE64ITk8ByteTypehEvPT_m (24,592,942 samples, 4.19%)</title><rect x="932.8" y="181" width="49.4" height="15.0" fill="rgb(230,117,28)" rx="2" ry="2" />
<text  x="935.76" y="191.5" >_Z9W..</text>
</g>
<g >
<title>malloc (5,343,897 samples, 0.91%)</title><rect x="44.0" y="117" width="10.7" height="15.0" fill="rgb(230,119,28)" rx="2" ry="2" />
<text  x="47.00" y="127.5" ></text>
</g>
<g >
<title>__folio_alloc (5,346,349 samples, 0.91%)</title><rect x="33.3" y="133" width="10.7" height="15.0" fill="rgb(224,91,21)" rx="2" ry="2" />
<text  x="36.26" y="143.5" ></text>
</g>
<g >
<title>exc_page_fault (242,206 samples, 0.04%)</title><rect x="1189.5" y="197" width="0.5" height="15.0" fill="rgb(212,35,8)" rx="2" ry="2" />
<text  x="1192.50" y="207.5" ></text>
</g>
<g >
<title>[libc.so.6] (887,684 samples, 0.15%)</title><rect x="10.0" y="341" width="1.8" height="15.0" fill="rgb(223,84,20)" rx="2" ry="2" />
<text  x="13.00" y="351.5" ></text>
</g>
<g >
<title>filemap_map_pages (5,346,189 samples, 0.91%)</title><rect x="11.8" y="53" width="10.7" height="15.0" fill="rgb(229,112,27)" rx="2" ry="2" />
<text  x="14.78" y="63.5" ></text>
</g>
<g >
<title>[libc.so.6] (5,343,897 samples, 0.91%)</title><rect x="44.0" y="101" width="10.7" height="15.0" fill="rgb(223,84,20)" rx="2" ry="2" />
<text  x="47.00" y="111.5" ></text>
</g>
<g >
<title>meminfo_proc_show (12,958,974 samples, 2.21%)</title><rect x="1163.5" y="85" width="26.0" height="15.0" fill="rgb(243,177,42)" rx="2" ry="2" />
<text  x="1166.47" y="95.5" >m..</text>
</g>
<g >
<title>[libc.so.6] (5,346,337 samples, 0.91%)</title><rect x="22.5" y="245" width="10.8" height="15.0" fill="rgb(223,84,20)" rx="2" ry="2" />
<text  x="25.52" y="255.5" ></text>
</g>
<g >
<title>internal_bswap_64 (13,868,612 samples, 2.36%)</title><rect x="954.3" y="149" width="27.9" height="15.0" fill="rgb(244,182,43)" rx="2" ry="2" />
<text  x="957.30" y="159.5" >i..</text>
</g>
<g >
<title>do_user_addr_fault (5,346,337 samples, 0.91%)</title><rect x="22.5" y="197" width="10.8" height="15.0" fill="rgb(228,108,25)" rx="2" ry="2" />
<text  x="25.52" y="207.5" ></text>
</g>
<g >
<title>asm_exc_page_fault (5,346,349 samples, 0.91%)</title><rect x="33.3" y="245" width="10.7" height="15.0" fill="rgb(225,93,22)" rx="2" ry="2" />
<text  x="36.26" y="255.5" ></text>
</g>
<g >
<title>main (21,382,772 samples, 3.64%)</title><rect x="11.8" y="293" width="42.9" height="15.0" fill="rgb(243,179,42)" rx="2" ry="2" />
<text  x="14.78" y="303.5" >main</text>
</g>
<g >
<title>exc_page_fault (5,346,189 samples, 0.91%)</title><rect x="11.8" y="133" width="10.7" height="15.0" fill="rgb(212,35,8)" rx="2" ry="2" />
<text  x="14.78" y="143.5" ></text>
</g>
<g >
<title>fuzzer::FuzzerDriver (21,382,772 samples, 3.64%)</title><rect x="11.8" y="277" width="42.9" height="15.0" fill="rgb(206,5,1)" rx="2" ry="2" />
<text  x="14.78" y="287.5" >fuzz..</text>
</g>
<g >
<title>CSHA512::Write (401,401,851 samples, 68.33%)</title><rect x="126.5" y="181" width="806.3" height="15.0" fill="rgb(249,206,49)" rx="2" ry="2" />
<text  x="129.48" y="191.5" >CSHA512::Write</text>
</g>
<g >
<title>fuzzer::InputCorpus::InputCorpus (10,692,686 samples, 1.82%)</title><rect x="22.5" y="261" width="21.5" height="15.0" fill="rgb(246,190,45)" rx="2" ry="2" />
<text  x="25.52" y="271.5" >f..</text>
</g>
<g >
<title>__handle_mm_fault (19,333,072 samples, 3.29%)</title><rect x="54.8" y="197" width="38.8" height="15.0" fill="rgb(207,9,2)" rx="2" ry="2" />
<text  x="57.78" y="207.5" >__h..</text>
</g>
<g >
<title>_start (545,577,355 samples, 92.87%)</title><rect x="93.6" y="341" width="1095.9" height="15.0" fill="rgb(245,185,44)" rx="2" ry="2" />
<text  x="96.62" y="351.5" >_start</text>
</g>
<g >
<title>nanosleep (887,684 samples, 0.15%)</title><rect x="10.0" y="261" width="1.8" height="15.0" fill="rgb(229,113,27)" rx="2" ry="2" />
<text  x="13.00" y="271.5" ></text>
</g>
<g >
<title>do_execveat_common.isra.0 (242,206 samples, 0.04%)</title><rect x="1189.5" y="293" width="0.5" height="15.0" fill="rgb(231,123,29)" rx="2" ry="2" />
<text  x="1192.50" y="303.5" ></text>
</g>
<g >
<title>asm_exc_page_fault (19,333,072 samples, 3.29%)</title><rect x="54.8" y="261" width="38.8" height="15.0" fill="rgb(225,93,22)" rx="2" ry="2" />
<text  x="57.78" y="271.5" >asm..</text>
</g>
<g >
<title>seq_read_iter (12,958,974 samples, 2.21%)</title><rect x="1163.5" y="101" width="26.0" height="15.0" fill="rgb(232,128,30)" rx="2" ry="2" />
<text  x="1166.47" y="111.5" >s..</text>
</g>
<g >
<title>DataStream::operator&gt;&gt;&lt;std::vector&lt;unsigned char, std::allocator&lt;unsigned char&gt; &gt;&amp;&gt; (5,343,897 samples, 0.91%)</title><rect x="44.0" y="181" width="10.7" height="15.0" fill="rgb(223,85,20)" rx="2" ry="2" />
<text  x="47.00" y="191.5" ></text>
</g>
<g >
<title>[ld-linux-x86-64.so.2] (19,333,072 samples, 3.29%)</title><rect x="54.8" y="293" width="38.8" height="15.0" fill="rgb(243,178,42)" rx="2" ry="2" />
<text  x="57.78" y="303.5" >[ld..</text>
</g>
<g >
<title>exc_page_fault (19,333,072 samples, 3.29%)</title><rect x="54.8" y="245" width="38.8" height="15.0" fill="rgb(212,35,8)" rx="2" ry="2" />
<text  x="57.78" y="255.5" >exc..</text>
</g>
<g >
<title>schedule (887,684 samples, 0.15%)</title><rect x="10.0" y="133" width="1.8" height="15.0" fill="rgb(254,229,54)" rx="2" ry="2" />
<text  x="13.00" y="143.5" ></text>
</g>
<g >
<title>entry_SYSCALL_64_after_hwframe (887,684 samples, 0.15%)</title><rect x="10.0" y="229" width="1.8" height="15.0" fill="rgb(218,63,15)" rx="2" ry="2" />
<text  x="13.00" y="239.5" ></text>
</g>
<g >
<title>bprm_execve (242,206 samples, 0.04%)</title><rect x="1189.5" y="277" width="0.5" height="15.0" fill="rgb(218,61,14)" rx="2" ry="2" />
<text  x="1192.50" y="287.5" ></text>
</g>
<g >
<title>[ld-linux-x86-64.so.2] (19,333,072 samples, 3.29%)</title><rect x="54.8" y="277" width="38.8" height="15.0" fill="rgb(243,178,42)" rx="2" ry="2" />
<text  x="57.78" y="287.5" >[ld..</text>
</g>
<g >
<title>GetRandHash (545,577,355 samples, 92.87%)</title><rect x="93.6" y="229" width="1095.9" height="15.0" fill="rgb(233,132,31)" rx="2" ry="2" />
<text  x="96.62" y="239.5" >GetRandHash</text>
</g>
<g >
<title>seq_puts (12,958,974 samples, 2.21%)</title><rect x="1163.5" y="53" width="26.0" height="15.0" fill="rgb(253,220,52)" rx="2" ry="2" />
<text  x="1166.47" y="63.5" >s..</text>
</g>
<g >
<title>sleep (887,684 samples, 0.15%)</title><rect x="10.0" y="277" width="1.8" height="15.0" fill="rgb(244,182,43)" rx="2" ry="2" />
<text  x="13.00" y="287.5" ></text>
</g>
<g >
<title>$_0::operator (545,577,355 samples, 92.87%)</title><rect x="93.6" y="277" width="1095.9" height="15.0" fill="rgb(249,202,48)" rx="2" ry="2" />
<text  x="96.62" y="287.5" >$_0::operator</text>
</g>
<g >
<title>_start (21,382,772 samples, 3.64%)</title><rect x="11.8" y="341" width="42.9" height="15.0" fill="rgb(245,185,44)" rx="2" ry="2" />
<text  x="14.78" y="351.5" >_start</text>
</g>
<g >
<title>fuzzer::Fuzzer::ExecuteCallback (5,343,897 samples, 0.91%)</title><rect x="44.0" y="245" width="10.7" height="15.0" fill="rgb(246,189,45)" rx="2" ry="2" />
<text  x="47.00" y="255.5" ></text>
</g>
<g >
<title>__sanitizer_cov_trace_const_cmp8 (32,587,526 samples, 5.55%)</title><rect x="867.3" y="165" width="65.5" height="15.0" fill="rgb(206,8,2)" rx="2" ry="2" />
<text  x="870.31" y="175.5" >__sanit..</text>
</g>
<g >
<title>__handle_mm_fault (5,346,349 samples, 0.91%)</title><rect x="33.3" y="181" width="10.7" height="15.0" fill="rgb(207,9,2)" rx="2" ry="2" />
<text  x="36.26" y="191.5" ></text>
</g>
<g >
<title>CreateBaseChainParams (5,346,189 samples, 0.91%)</title><rect x="11.8" y="165" width="10.7" height="15.0" fill="rgb(241,168,40)" rx="2" ry="2" />
<text  x="14.78" y="175.5" ></text>
</g>
<g >
<title>std::__invoke_impl&lt;void, dbwrapper_Before_Main::dbwrapper_Before_Main (5,346,189 samples, 0.91%)</title><rect x="11.8" y="245" width="10.7" height="15.0" fill="rgb(226,100,23)" rx="2" ry="2" />
<text  x="14.78" y="255.5" ></text>
</g>
<g >
<title>do_user_addr_fault (19,333,072 samples, 3.29%)</title><rect x="54.8" y="229" width="38.8" height="15.0" fill="rgb(228,108,25)" rx="2" ry="2" />
<text  x="57.78" y="239.5" >do_..</text>
</g>
<g >
<title>FastRandomContext::RandomSeed (545,577,355 samples, 92.87%)</title><rect x="93.6" y="245" width="1095.9" height="15.0" fill="rgb(251,212,50)" rx="2" ry="2" />
<text  x="96.62" y="255.5" >FastRandomContext::RandomSeed</text>
</g>
<g >
<title>FastRandomContext::rand64 (545,577,355 samples, 92.87%)</title><rect x="93.6" y="261" width="1095.9" height="15.0" fill="rgb(217,59,14)" rx="2" ry="2" />
<text  x="96.62" y="271.5" >FastRandomContext::rand64</text>
</g>
<g >
<title>[libc.so.6] (84,680,172 samples, 14.41%)</title><rect x="982.2" y="165" width="170.1" height="15.0" fill="rgb(223,84,20)" rx="2" ry="2" />
<text  x="985.16" y="175.5" >[libc.so.6]</text>
</g>
<g >
<title>asm_exc_page_fault (5,346,189 samples, 0.91%)</title><rect x="11.8" y="149" width="10.7" height="15.0" fill="rgb(225,93,22)" rx="2" ry="2" />
<text  x="14.78" y="159.5" ></text>
</g>
<g >
<title>do_set_pte (5,346,189 samples, 0.91%)</title><rect x="11.8" y="37" width="10.7" height="15.0" fill="rgb(253,221,52)" rx="2" ry="2" />
<text  x="14.78" y="47.5" ></text>
</g>
<g >
<title>exc_page_fault (5,346,349 samples, 0.91%)</title><rect x="33.3" y="229" width="10.7" height="15.0" fill="rgb(212,35,8)" rx="2" ry="2" />
<text  x="36.26" y="239.5" ></text>
</g>
<g >
<title>do_user_addr_fault (5,346,349 samples, 0.91%)</title><rect x="33.3" y="213" width="10.7" height="15.0" fill="rgb(228,108,25)" rx="2" ry="2" />
<text  x="36.26" y="223.5" ></text>
</g>
<g >
<title>std::vector&lt;unsigned char, std::allocator&lt;unsigned char&gt; &gt;::_M_default_append (5,343,897 samples, 0.91%)</title><rect x="44.0" y="149" width="10.7" height="15.0" fill="rgb(206,5,1)" rx="2" ry="2" />
<text  x="47.00" y="159.5" ></text>
</g>
<g >
<title>_copy_to_user (242,206 samples, 0.04%)</title><rect x="1189.5" y="245" width="0.5" height="15.0" fill="rgb(206,8,1)" rx="2" ry="2" />
<text  x="1192.50" y="255.5" ></text>
</g>
<g >
<title>__handle_mm_fault (5,346,189 samples, 0.91%)</title><rect x="11.8" y="85" width="10.7" height="15.0" fill="rgb(207,9,2)" rx="2" ry="2" />
<text  x="14.78" y="95.5" ></text>
</g>
<g >
<title>GetRandBytes (545,577,355 samples, 92.87%)</title><rect x="93.6" y="213" width="1095.9" height="15.0" fill="rgb(237,149,35)" rx="2" ry="2" />
<text  x="96.62" y="223.5" >GetRandBytes</text>
</g>
<g >
<title>seq_put_decimal_ull_width (12,958,974 samples, 2.21%)</title><rect x="1163.5" y="69" width="26.0" height="15.0" fill="rgb(244,183,43)" rx="2" ry="2" />
<text  x="1166.47" y="79.5" >s..</text>
</g>
<g >
<title>[ld-linux-x86-64.so.2] (19,333,072 samples, 3.29%)</title><rect x="54.8" y="341" width="38.8" height="15.0" fill="rgb(243,178,42)" rx="2" ry="2" />
<text  x="57.78" y="351.5" >[ld..</text>
</g>
<g >
<title>vma_alloc_folio (5,346,349 samples, 0.91%)</title><rect x="33.3" y="149" width="10.7" height="15.0" fill="rgb(245,187,44)" rx="2" ry="2" />
<text  x="36.26" y="159.5" ></text>
</g>
<g >
<title>htobe64_internal (13,868,612 samples, 2.36%)</title><rect x="954.3" y="165" width="27.9" height="15.0" fill="rgb(229,112,26)" rx="2" ry="2" />
<text  x="957.30" y="175.5" >h..</text>
</g>
<g >
<title>[ld-linux-x86-64.so.2] (19,333,072 samples, 3.29%)</title><rect x="54.8" y="325" width="38.8" height="15.0" fill="rgb(243,178,42)" rx="2" ry="2" />
<text  x="57.78" y="335.5" >[ld..</text>
</g>
<g >
<title>__cxx_global_var_init.50 (545,577,355 samples, 92.87%)</title><rect x="93.6" y="293" width="1095.9" height="15.0" fill="rgb(226,98,23)" rx="2" ry="2" />
<text  x="96.62" y="303.5" >__cxx_global_var_init.50</text>
</g>
<g >
<title>MakeNoLogFileContext&lt;BasicTestingSetup const&gt; (5,346,189 samples, 0.91%)</title><rect x="11.8" y="229" width="10.7" height="15.0" fill="rgb(207,11,2)" rx="2" ry="2" />
<text  x="14.78" y="239.5" ></text>
</g>
<g >
<title>_GLOBAL__sub_I_setup_common.cpp (545,577,355 samples, 92.87%)</title><rect x="93.6" y="309" width="1095.9" height="15.0" fill="rgb(230,118,28)" rx="2" ry="2" />
<text  x="96.62" y="319.5" >_GLOBAL__sub_I_setup_common.cpp</text>
</g>
<g >
<title>fuzz (565,152,633 samples, 96.20%)</title><rect x="54.8" y="357" width="1135.2" height="15.0" fill="rgb(222,81,19)" rx="2" ry="2" />
<text  x="57.78" y="367.5" >fuzz</text>
</g>
<g >
<title>vma_alloc_folio (242,206 samples, 0.04%)</title><rect x="1189.5" y="133" width="0.5" height="15.0" fill="rgb(245,187,44)" rx="2" ry="2" />
<text  x="1192.50" y="143.5" ></text>
</g>
<g >
<title>do_user_addr_fault (242,206 samples, 0.04%)</title><rect x="1189.5" y="181" width="0.5" height="15.0" fill="rgb(228,108,25)" rx="2" ry="2" />
<text  x="1192.50" y="191.5" ></text>
</g>
<g >
<title>BasicTestingSetup::BasicTestingSetup (5,346,189 samples, 0.91%)</title><rect x="11.8" y="197" width="10.7" height="15.0" fill="rgb(219,65,15)" rx="2" ry="2" />
<text  x="14.78" y="207.5" ></text>
</g>
<g >
<title>do_syscall_64 (887,684 samples, 0.15%)</title><rect x="10.0" y="213" width="1.8" height="15.0" fill="rgb(209,20,4)" rx="2" ry="2" />
<text  x="13.00" y="223.5" ></text>
</g>
<g >
<title>CDBIterator::GetValue&lt;std::vector&lt;unsigned char, std::allocator&lt;unsigned char&gt; &gt; &gt; (5,343,897 samples, 0.91%)</title><rect x="44.0" y="197" width="10.7" height="15.0" fill="rgb(233,128,30)" rx="2" ry="2" />
<text  x="47.00" y="207.5" ></text>
</g>
<g >
<title>do_fault (19,333,072 samples, 3.29%)</title><rect x="54.8" y="181" width="38.8" height="15.0" fill="rgb(248,200,47)" rx="2" ry="2" />
<text  x="57.78" y="191.5" >do_..</text>
</g>
<g >
<title>__x64_sys_execve (242,206 samples, 0.04%)</title><rect x="1189.5" y="309" width="0.5" height="15.0" fill="rgb(247,193,46)" rx="2" ry="2" />
<text  x="1192.50" y="319.5" ></text>
</g>
<g >
<title>clear_page_erms (5,346,337 samples, 0.91%)</title><rect x="22.5" y="117" width="10.8" height="15.0" fill="rgb(229,113,27)" rx="2" ry="2" />
<text  x="25.52" y="127.5" ></text>
</g>
<g >
<title>clock_nanosleep (887,684 samples, 0.15%)</title><rect x="10.0" y="245" width="1.8" height="15.0" fill="rgb(231,119,28)" rx="2" ry="2" />
<text  x="13.00" y="255.5" ></text>
</g>
<g >
<title>__libc_start_main (21,382,772 samples, 3.64%)</title><rect x="11.8" y="325" width="42.9" height="15.0" fill="rgb(236,142,34)" rx="2" ry="2" />
<text  x="14.78" y="335.5" >__li..</text>
</g>
<g >
<title>b-test (22,294,946 samples, 3.80%)</title><rect x="10.0" y="357" width="44.8" height="15.0" fill="rgb(245,187,44)" rx="2" ry="2" />
<text  x="13.00" y="367.5" >b-test</text>
</g>
<g >
<title>asm_exc_page_fault (5,346,337 samples, 0.91%)</title><rect x="22.5" y="229" width="10.8" height="15.0" fill="rgb(225,93,22)" rx="2" ry="2" />
<text  x="25.52" y="239.5" ></text>
</g>
<g >
<title>do_huge_pmd_anonymous_page (5,346,337 samples, 0.91%)</title><rect x="22.5" y="149" width="10.8" height="15.0" fill="rgb(242,172,41)" rx="2" ry="2" />
<text  x="25.52" y="159.5" ></text>
</g>
<g >
<title>do_user_addr_fault (5,346,189 samples, 0.91%)</title><rect x="11.8" y="117" width="10.7" height="15.0" fill="rgb(228,108,25)" rx="2" ry="2" />
<text  x="14.78" y="127.5" ></text>
</g>
<g >
<title>do_huge_pmd_anonymous_page (5,346,349 samples, 0.91%)</title><rect x="33.3" y="165" width="10.7" height="15.0" fill="rgb(242,172,41)" rx="2" ry="2" />
<text  x="36.26" y="175.5" ></text>
</g>
<g >
<title>std::make_unique&lt;BasicTestingSetup const, ChainType const&amp;, TestOpts&amp;&gt; (5,346,189 samples, 0.91%)</title><rect x="11.8" y="213" width="10.7" height="15.0" fill="rgb(205,2,0)" rx="2" ry="2" />
<text  x="14.78" y="223.5" ></text>
</g>
<g >
<title>__handle_mm_fault (242,206 samples, 0.04%)</title><rect x="1189.5" y="149" width="0.5" height="15.0" fill="rgb(207,9,2)" rx="2" ry="2" />
<text  x="1192.50" y="159.5" ></text>
</g>
<g >
<title>do_fault (5,346,189 samples, 0.91%)</title><rect x="11.8" y="69" width="10.7" height="15.0" fill="rgb(248,200,47)" rx="2" ry="2" />
<text  x="14.78" y="79.5" ></text>
</g>
<g >
<title>[ld-linux-x86-64.so.2] (19,333,072 samples, 3.29%)</title><rect x="54.8" y="309" width="38.8" height="15.0" fill="rgb(243,178,42)" rx="2" ry="2" />
<text  x="57.78" y="319.5" >[ld..</text>
</g>
<g >
<title>operator new (5,343,897 samples, 0.91%)</title><rect x="44.0" y="133" width="10.7" height="15.0" fill="rgb(216,51,12)" rx="2" ry="2" />
<text  x="47.00" y="143.5" ></text>
</g>
<g >
<title>do_nanosleep (887,684 samples, 0.15%)</title><rect x="10.0" y="149" width="1.8" height="15.0" fill="rgb(253,220,52)" rx="2" ry="2" />
<text  x="13.00" y="159.5" ></text>
</g>
<g >
<title>do_syscall_64 (12,958,974 samples, 2.21%)</title><rect x="1163.5" y="149" width="26.0" height="15.0" fill="rgb(209,20,4)" rx="2" ry="2" />
<text  x="1166.47" y="159.5" >d..</text>
</g>
<g >
<title>fuzzer::RunOneTest (5,343,897 samples, 0.91%)</title><rect x="44.0" y="261" width="10.7" height="15.0" fill="rgb(227,104,24)" rx="2" ry="2" />
<text  x="47.00" y="271.5" ></text>
</g>
<g >
<title>__schedule (887,684 samples, 0.15%)</title><rect x="10.0" y="117" width="1.8" height="15.0" fill="rgb(227,103,24)" rx="2" ry="2" />
<text  x="13.00" y="127.5" ></text>
</g>
<g >
<title>dbwrapper_fuzz_target (5,343,897 samples, 0.91%)</title><rect x="44.0" y="213" width="10.7" height="15.0" fill="rgb(218,64,15)" rx="2" ry="2" />
<text  x="47.00" y="223.5" ></text>
</g>
<g >
<title>__libc_start_main (545,577,355 samples, 92.87%)</title><rect x="93.6" y="325" width="1095.9" height="15.0" fill="rgb(236,142,34)" rx="2" ry="2" />
<text  x="96.62" y="335.5" >__libc_start_main</text>
</g>
<g >
<title>vfs_read (12,958,974 samples, 2.21%)</title><rect x="1163.5" y="117" width="26.0" height="15.0" fill="rgb(224,88,21)" rx="2" ry="2" />
<text  x="1166.47" y="127.5" >v..</text>
</g>
<g >
<title>handle_mm_fault (5,346,349 samples, 0.91%)</title><rect x="33.3" y="197" width="10.7" height="15.0" fill="rgb(234,135,32)" rx="2" ry="2" />
<text  x="36.26" y="207.5" ></text>
</g>
<g >
<title>finish_fault (19,333,072 samples, 3.29%)</title><rect x="54.8" y="165" width="38.8" height="15.0" fill="rgb(220,72,17)" rx="2" ry="2" />
<text  x="57.78" y="175.5" >fin..</text>
</g>
<g >
<title>get_page_from_freelist (5,346,349 samples, 0.91%)</title><rect x="33.3" y="101" width="10.7" height="15.0" fill="rgb(252,218,52)" rx="2" ry="2" />
<text  x="36.26" y="111.5" ></text>
</g>
<g >
<title>clear_huge_page (5,346,337 samples, 0.91%)</title><rect x="22.5" y="133" width="10.8" height="15.0" fill="rgb(220,69,16)" rx="2" ry="2" />
<text  x="25.52" y="143.5" ></text>
</g>
<g >
<title>[libc.so.6] (21,382,772 samples, 3.64%)</title><rect x="11.8" y="309" width="42.9" height="15.0" fill="rgb(223,84,20)" rx="2" ry="2" />
<text  x="14.78" y="319.5" >[lib..</text>
</g>
<g >
<title>CSHA512::Write (90,261,530 samples, 15.36%)</title><rect x="982.2" y="197" width="181.3" height="15.0" fill="rgb(249,206,49)" rx="2" ry="2" />
<text  x="985.16" y="207.5" >CSHA512::Write</text>
</g>
<g >
<title>LLVMFuzzerInitialize (5,346,189 samples, 0.91%)</title><rect x="11.8" y="261" width="10.7" height="15.0" fill="rgb(224,89,21)" rx="2" ry="2" />
<text  x="14.78" y="271.5" ></text>
</g>
<g >
<title>__handle_mm_fault (5,346,337 samples, 0.91%)</title><rect x="22.5" y="165" width="10.8" height="15.0" fill="rgb(207,9,2)" rx="2" ry="2" />
<text  x="25.52" y="175.5" ></text>
</g>
<g >
<title>__get_vma_policy (242,206 samples, 0.04%)</title><rect x="1189.5" y="117" width="0.5" height="15.0" fill="rgb(210,27,6)" rx="2" ry="2" />
<text  x="1192.50" y="127.5" ></text>
</g>
<g >
<title>common_nsleep (887,684 samples, 0.15%)</title><rect x="10.0" y="181" width="1.8" height="15.0" fill="rgb(227,105,25)" rx="2" ry="2" />
<text  x="13.00" y="191.5" ></text>
</g>
<g >
<title>SetupServerArgs (5,346,189 samples, 0.91%)</title><rect x="11.8" y="181" width="10.7" height="15.0" fill="rgb(205,2,0)" rx="2" ry="2" />
<text  x="14.78" y="191.5" ></text>
</g>
<g >
<title>do_syscall_64 (242,206 samples, 0.04%)</title><rect x="1189.5" y="325" width="0.5" height="15.0" fill="rgb(209,20,4)" rx="2" ry="2" />
<text  x="1192.50" y="335.5" ></text>
</g>
<g >
<title>entry_SYSCALL_64_after_hwframe (242,206 samples, 0.04%)</title><rect x="1189.5" y="341" width="0.5" height="15.0" fill="rgb(218,63,15)" rx="2" ry="2" />
<text  x="1192.50" y="351.5" ></text>
</g>
<g >
<title>[libc.so.6] (887,684 samples, 0.15%)</title><rect x="10.0" y="325" width="1.8" height="15.0" fill="rgb(223,84,20)" rx="2" ry="2" />
<text  x="13.00" y="335.5" ></text>
</g>
<g >
<title>CSHA512::Write (84,680,172 samples, 14.41%)</title><rect x="982.2" y="181" width="170.1" height="15.0" fill="rgb(249,206,49)" rx="2" ry="2" />
<text  x="985.16" y="191.5" >CSHA512::Write</text>
</g>
<g >
<title>handle_mm_fault (19,333,072 samples, 3.29%)</title><rect x="54.8" y="213" width="38.8" height="15.0" fill="rgb(234,135,32)" rx="2" ry="2" />
<text  x="57.78" y="223.5" >han..</text>
</g>
<g >
<title>handle_mm_fault (5,346,189 samples, 0.91%)</title><rect x="11.8" y="101" width="10.7" height="15.0" fill="rgb(234,135,32)" rx="2" ry="2" />
<text  x="14.78" y="111.5" ></text>
</g>
<g >
<title>hrtimer_nanosleep (887,684 samples, 0.15%)</title><rect x="10.0" y="165" width="1.8" height="15.0" fill="rgb(237,147,35)" rx="2" ry="2" />
<text  x="13.00" y="175.5" ></text>
</g>
<g >
<title>all (587,456,106 samples, 100%)</title><rect x="10.0" y="373" width="1180.0" height="15.0" fill="rgb(213,39,9)" rx="2" ry="2" />
<text  x="13.00" y="383.5" ></text>
</g>
<g >
<title>ksys_read (12,958,974 samples, 2.21%)</title><rect x="1163.5" y="133" width="26.0" height="15.0" fill="rgb(229,113,27)" rx="2" ry="2" />
<text  x="1166.47" y="143.5" >k..</text>
</g>
<g >
<title>__alloc_pages (5,346,349 samples, 0.91%)</title><rect x="33.3" y="117" width="10.7" height="15.0" fill="rgb(233,129,30)" rx="2" ry="2" />
<text  x="36.26" y="127.5" ></text>
</g>
<g >
<title>clear_page_erms (5,346,349 samples, 0.91%)</title><rect x="33.3" y="85" width="10.7" height="15.0" fill="rgb(229,113,27)" rx="2" ry="2" />
<text  x="36.26" y="95.5" ></text>
</g>
<g >
<title>LLVMFuzzerTestOneInput (5,343,897 samples, 0.91%)</title><rect x="44.0" y="229" width="10.7" height="15.0" fill="rgb(234,133,32)" rx="2" ry="2" />
<text  x="47.00" y="239.5" ></text>
</g>
<g >
<title>__x64_sys_clock_nanosleep (887,684 samples, 0.15%)</title><rect x="10.0" y="197" width="1.8" height="15.0" fill="rgb(248,202,48)" rx="2" ry="2" />
<text  x="13.00" y="207.5" ></text>
</g>
<g >
<title>copy_user_enhanced_fast_string (242,206 samples, 0.04%)</title><rect x="1189.5" y="229" width="0.5" height="15.0" fill="rgb(238,155,37)" rx="2" ry="2" />
<text  x="1192.50" y="239.5" ></text>
</g>
</g>
</svg>
